<svg xmlns="http://www.w3.org/2000/svg" viewBox="0 0 1280 760" role="img" aria-labelledby="title desc">
  <title id="title">Show AI Inpainting service architecture overview</title>
  <desc id="desc">The browser uploads encrypted inputs to OSS. The GPU service downloads encrypted inputs from OSS, runs the private runtime, uploads the encrypted generated result to OSS, and the browser downloads the result ciphertext from OSS. The logic service provides API orchestration and an SSH relay fallback.</desc>
  <defs>
    <marker id="arrow" markerWidth="10" markerHeight="8" refX="9" refY="4" orient="auto" markerUnits="strokeWidth">
      <path d="M0,0 L10,4 L0,8 Z" fill="#64748b"/>
    </marker>
    <marker id="arrow-dashed" markerWidth="10" markerHeight="8" refX="9" refY="4" orient="auto" markerUnits="strokeWidth">
      <path d="M0,0 L10,4 L0,8 Z" fill="#d97706"/>
    </marker>
    <style>
      .bg { fill: #f8fafc; }
      .box { stroke-width: 2; rx: 12; }
      .browser { fill: #eff6ff; stroke: #2563eb; }
      .edge-node { fill: #f8fafc; stroke: #64748b; }
      .logic { fill: #ecfeff; stroke: #0f766e; }
      .storage { fill: #fffbeb; stroke: #d97706; }
      .private { fill: #fef2f2; stroke: #dc2626; }
      .runtime { fill: #f5f3ff; stroke: #7c3aed; }
      .title { font: 600 20px -apple-system, BlinkMacSystemFont, "Segoe UI", sans-serif; fill: #172033; text-anchor: middle; }
      .meta { font: 400 15px -apple-system, BlinkMacSystemFont, "Segoe UI", sans-serif; fill: #475569; text-anchor: middle; }
      .edge { fill: none; stroke: #64748b; stroke-width: 2.5; marker-end: url(#arrow); }
      .edge-dashed { fill: none; stroke: #d97706; stroke-width: 2.5; stroke-dasharray: 9 7; marker-end: url(#arrow-dashed); }
      .label-bg { fill: #ffffff; opacity: .94; }
      .label { font: 400 14px -apple-system, BlinkMacSystemFont, "Segoe UI", sans-serif; fill: #334155; text-anchor: middle; }
      .legend { font: 400 13px -apple-system, BlinkMacSystemFont, "Segoe UI", sans-serif; fill: #64748b; }
    </style>
  </defs>

  <rect class="bg" width="1280" height="760"/>

  <!-- Core request path -->
  <path class="edge" d="M270 235 H330"/>
  <path class="edge" d="M550 235 H610"/>
  <path class="edge" d="M745 290 V420"/>
  <path class="edge" d="M880 475 H950"/>
  <path class="edge" d="M1085 510 V570"/>

  <!-- Normal encrypted object-storage path -->
  <path class="edge" d="M880 220 H950"/>
  <path class="edge" d="M950 275 C870 310 870 375 950 420"/>
  <path class="edge" d="M1220 420 C1260 380 1260 320 1220 275"/>
  <path class="edge" d="M1210 290 C1260 360 1260 690 1150 700 H300 C220 700 180 560 155 290"/>

  <!-- Direct upload and fallback paths -->
  <path class="edge-dashed" d="M155 180 C155 70 1085 70 1085 180"/>
  <path class="edge-dashed" d="M155 290 C155 340 520 340 745 290"/>

  <rect class="box browser" x="40" y="180" width="230" height="110"/>
  <text class="title" x="155" y="215">Browser / Vue 3 SPA</text>
  <text class="meta" x="155" y="244">CSE encrypts inputs</text>
  <text class="meta" x="155" y="268">and decrypts results</text>

  <rect class="box edge-node" x="330" y="180" width="220" height="110"/>
  <text class="title" x="440" y="220">Nginx</text>
  <text class="meta" x="440" y="248">HTTPS and static frontend</text>
  <text class="meta" x="440" y="272">API reverse proxy</text>

  <rect class="box logic" x="610" y="180" width="270" height="110"/>
  <text class="title" x="745" y="215">Logic service</text>
  <text class="meta" x="745" y="244">FastAPI :8000</text>
  <text class="meta" x="745" y="268">auth, queue and task API</text>

  <rect class="box storage" x="950" y="180" width="270" height="110"/>
  <text class="title" x="1085" y="215">OSS object storage</text>
  <text class="meta" x="1085" y="244">ciphertext only</text>
  <text class="meta" x="1085" y="268">signed result URL</text>

  <rect class="box edge-node" x="610" y="420" width="270" height="110"/>
  <text class="title" x="745" y="455">SSH reverse tunnel</text>
  <text class="meta" x="745" y="484">loopback :19944</text>
  <text class="meta" x="745" y="508">private transport</text>

  <rect class="box private" x="950" y="380" width="270" height="130"/>
  <text class="title" x="1085" y="415">GPU service</text>
  <text class="meta" x="1085" y="444">FastAPI :7861</text>
  <text class="meta" x="1085" y="468">CSE boundary and relay</text>
  <text class="meta" x="1085" y="492">temporary local archive</text>

  <rect class="box runtime" x="950" y="570" width="270" height="80"/>
  <text class="title" x="1085" y="603">Private runtime adapter</text>
  <text class="meta" x="1085" y="628">generate() / model implementation</text>

  <rect class="label-bg" x="495" y="51" width="290" height="30"/>
  <text class="label" x="640" y="72">direct encrypted upload</text>
  <rect class="label-bg" x="825" y="138" width="235" height="30"/>
  <text class="label" x="942" y="159">upload policy and signed URL</text>
  <rect class="label-bg" x="505" y="330" width="250" height="30"/>
  <text class="label" x="630" y="351">fallback encrypted relay</text>
  <rect class="label-bg" x="755" y="330" width="205" height="30"/>
  <text class="label" x="857" y="351">encrypted input download</text>
  <rect class="label-bg" x="1000" y="330" width="220" height="30"/>
  <text class="label" x="1110" y="351">encrypted result upload</text>
  <rect class="label-bg" x="495" y="675" width="275" height="30"/>
  <text class="label" x="632" y="696">result ciphertext, fetched once after done</text>

  <line x1="40" y1="735" x2="92" y2="735" stroke="#64748b" stroke-width="2.5"/>
  <text class="legend" x="102" y="740">API or data flow</text>
  <line x1="245" y1="735" x2="297" y2="735" stroke="#d97706" stroke-width="2.5" stroke-dasharray="9 7"/>
  <text class="legend" x="307" y="740">direct upload or fallback</text>
</svg>
